<?xml version="1.0" standalone="no"?>
<!DOCTYPE svg PUBLIC "-//W3C//DTD SVG 20010904//EN"
 "http://www.w3.org/TR/2001/REC-SVG-20010904/DTD/svg10.dtd">
<svg version="1.0" xmlns="http://www.w3.org/2000/svg"
 width="500.000000pt" height="500.000000pt" viewBox="0 0 500.000000 500.000000"
 preserveAspectRatio="xMidYMid meet">
<metadata>
Created by potrace 1.11, written by Peter Selinger 2001-2013
</metadata>
<g transform="translate(0.000000,500.000000) scale(0.100000,-0.100000)"
fill="#000000" stroke="none">
<path d="M3989 4318 c-14 -5 -36 -26 -48 -48 -12 -21 -82 -134 -156 -251 -74
-117 -135 -223 -135 -236 0 -13 10 -29 25 -39 22 -15 27 -15 48 -1 12 8 93
128 180 266 128 203 158 256 153 276 -8 32 -34 45 -67 33z"/>
<path d="M2085 4300 c-90 -23 -156 -83 -180 -163 -19 -63 -19 -81 0 -144 51
-171 271 -224 399 -97 92 93 92 245 0 338 -56 55 -150 84 -219 66z m114 -118
c76 -41 93 -144 34 -207 -82 -88 -226 -38 -235 82 -8 103 108 175 201 125z"/>
<path d="M1012 4108 c-6 -6 -12 -22 -12 -34 0 -25 196 -321 226 -340 15 -11
24 -11 44 -1 47 23 37 51 -78 222 -95 140 -112 160 -138 163 -16 2 -35 -3 -42
-10z"/>
<path d="M2397 3774 c-1 -1 -54 -4 -117 -8 -592 -30 -1169 -326 -1543 -791
-319 -396 -481 -842 -482 -1330 0 -115 3 -135 22 -171 64 -120 258 -222 568
-299 143 -35 152 -37 265 -55 199 -32 192 -31 434 -55 305 -29 801 -33 1191
-10 55 3 116 8 135 10 19 2 67 7 105 10 109 9 258 27 345 40 14 2 45 7 70 10
214 30 503 96 681 155 276 93 438 196 490 316 15 34 18 59 14 138 -4 92 -11
162 -20 216 -3 14 -7 39 -10 56 -2 17 -18 82 -34 145 -226 892 -1025 1556
-1941 1615 -141 9 -170 10 -173 8z m268 -118 c17 -3 62 -11 100 -17 566 -92
1095 -447 1403 -942 183 -292 301 -674 306 -983 1 -65 -2 -73 -32 -112 -18
-23 -65 -61 -105 -85 -67 -41 -106 -60 -243 -116 -52 -20 -316 -97 -366 -106
-16 -3 -60 -12 -98 -20 -38 -8 -82 -17 -97 -19 -16 -3 -69 -12 -119 -20 -50
-9 -113 -18 -140 -21 -27 -3 -56 -8 -64 -10 -8 -2 -51 -7 -95 -10 -44 -4 -87
-8 -95 -10 -8 -2 -55 -7 -105 -10 -49 -4 -106 -9 -125 -11 -217 -22 -933 -22
-1165 1 -22 2 -72 6 -110 9 -86 7 -232 26 -365 47 -415 67 -738 195 -782 309
-15 39 -11 251 8 365 76 479 262 848 593 1175 278 275 628 468 996 549 87 19
113 23 220 37 28 3 52 8 54 9 5 6 393 -3 426 -9z"/>
<path d="M3073 3402 c-15 -10 -31 -53 -26 -70 3 -7 48 -33 101 -59 432 -207
745 -532 931 -966 24 -56 53 -75 87 -56 42 22 34 61 -53 234 -184 369 -508
687 -885 869 -102 49 -137 60 -155 48z"/>
<path d="M968 2533 c-3 -7 -2 -580 1 -606 1 -5 85 -7 189 -5 207 4 239 12 300
71 61 58 77 107 76 232 0 128 -20 188 -82 247 -61 58 -95 65 -299 67 -99 1
-183 -2 -185 -6z m312 -151 c49 -24 64 -62 64 -157 -1 -127 -33 -165 -140
-165 l-44 0 0 170 0 170 43 0 c23 0 58 -8 77 -18z"/>
<path d="M1640 2230 l0 -310 80 0 80 0 2 226 3 226 33 -128 c18 -71 35 -136
37 -144 3 -14 8 -34 35 -138 l11 -43 72 3 71 3 33 125 c18 69 43 167 55 218
12 50 25 92 28 92 3 0 5 -98 5 -217 l0 -218 78 -3 77 -3 1 33 c1 38 1 532 0
566 -1 22 -3 22 -126 22 l-124 0 -15 -52 c-9 -29 -30 -111 -47 -181 -17 -71
-35 -125 -39 -120 -4 4 -27 86 -51 181 l-43 172 -128 0 -128 0 0 -310z"/>
<path d="M2465 2230 l0 -310 98 0 98 0 -1 58 c-1 31 -1 87 -1 125 l1 67 120 0
120 0 0 65 0 65 -120 0 -120 0 0 50 0 50 140 0 140 0 0 70 0 70 -238 0 -237 0
0 -310z"/>
<path d="M3047 2533 c-2 -5 -3 -143 -3 -308 l1 -300 96 -3 96 -3 0 76 -1 76
51 50 50 51 58 -114 c31 -62 62 -119 67 -125 11 -13 238 -20 238 -7 0 3 -8 18
-17 32 -10 15 -23 36 -30 47 -6 11 -49 81 -95 155 -46 74 -84 137 -86 141 -3
6 52 66 166 182 l56 57 -129 -1 -130 0 -39 -47 c-93 -112 -150 -172 -155 -163
-3 5 -5 55 -4 110 l1 101 -93 0 c-52 0 -96 -3 -98 -7z"/>
<path d="M4795 3519 c-49 -39 -104 -83 -122 -97 -17 -15 -84 -67 -147 -117
-103 -79 -116 -93 -116 -120 0 -33 25 -55 55 -51 10 1 125 87 256 191 204 161
239 192 239 215 0 14 -5 31 -12 38 -26 26 -63 11 -153 -59z"/>
<path d="M91 3287 c-12 -12 -14 -57 -3 -73 7 -9 58 -40 182 -107 30 -16 60
-34 67 -39 19 -15 64 -5 79 17 19 28 0 62 -51 89 -22 12 -80 43 -129 70 -93
51 -127 61 -145 43z"/>
</g>
</svg>
