<svg id="Layer_2" height="512" viewBox="0 0 128 128" width="512" xmlns="http://www.w3.org/2000/svg" data-name="Layer 2"><path d="m36.409 20.234h7.339a6.914 6.914 0 0 1 6.914 6.914 2 2 0 0 1 -2 2h-17.162a2 2 0 0 1 -2-2 6.914 6.914 0 0 1 6.914-6.914z" fill="#92cdde"/><path d="m80.112 29.356h14.811a3.73 3.73 0 1 1 0 7.46h-.173v6h.173a9.73 9.73 0 1 0 0-19.46h-24.19l7.6 16.46h-27.866l-6.283-10.668h-6.964l7.886 13.389-18.759 40.632 40.278-10.008 14.726-26.808 17.579 38.073 5.447-2.515-19.435-42.095zm-43.076 44.973 11.775-25.5 11.6 19.7zm27.727-10.241-10.763-18.272h20.8z" fill="#aabece"/><g fill="#394d5c"><path d="m41.791 64.03-4.428 9.591c.148.171.292.343.432.52l10.256-2.548a24.686 24.686 0 0 0 -6.26-7.563z"/><path d="m40.5 79.653a14.635 14.635 0 1 1 -8.038-9.722l4.2-9.094a24.589 24.589 0 1 0 13.562 16.4z"/><path d="m101.653 58.572a24.559 24.559 0 0 0 -7.51 1.172l4.251 9.208a14.652 14.652 0 1 1 -5.443 2.525l-4.251-9.215a24.6 24.6 0 1 0 12.956-3.69z"/></g></svg>