<svg id="Capa_1" enable-background="new 0 0 512 512" height="512" viewBox="0 0 512 512" width="512" xmlns="http://www.w3.org/2000/svg"><path d="m95.334 434.881c-52.567 0-95.334-42.766-95.334-95.334 0-52.567 42.767-95.334 95.334-95.334 52.566 0 95.334 42.767 95.334 95.334 0 52.568-42.768 95.334-95.334 95.334zm0-160.667c-36.025 0-65.334 29.308-65.334 65.333s29.309 65.334 65.334 65.334 65.334-29.309 65.334-65.334-29.309-65.333-65.334-65.333z" fill="#1d4659"/><path d="m416.668 434.881c-52.568 0-95.334-42.767-95.334-95.334s42.766-95.334 95.334-95.334c52.566 0 95.332 42.767 95.332 95.334 0 52.568-42.766 95.334-95.332 95.334zm0-160.667c-36.025 0-65.334 29.309-65.334 65.334s29.309 65.334 65.334 65.334c36.023 0 65.332-29.309 65.332-65.334s-29.309-65.334-65.332-65.334z" fill="#0e232c"/><path d="m431.283 336.174-48.068-208.288c-6.568-28.467-31.069-50.765-55.779-50.765-8.285 0-15 6.716-15 15s6.715 15 15 15c9.535 0 22.914 11.765 26.548 27.51l1.56 6.756h-191.86l12.104-45.401c2.135-8.005-2.625-16.225-10.63-18.358-8.005-2.131-16.224 2.624-18.357 10.63l-65.961 247.425c-1.201 4.503-.24 9.308 2.6 13.003 2.839 3.695 7.234 5.861 11.895 5.861h80.334c8.283 0 15-6.716 15-15s-6.717-15-15-15h-60.813l35.115-131.719 72.141 110.905-2.758 3.076c-5.531 6.168-5.015 15.651 1.152 21.182 2.865 2.569 6.443 3.833 10.01 3.833 4.113 0 8.211-1.683 11.173-4.985l124.591-138.931 35.772 155.012c1.601 6.938 7.774 11.63 14.603 11.63 1.117 0 2.252-.125 3.387-.387 8.071-1.863 13.105-9.916 11.241-17.989zm-259.472-164.787h168.987l-97.944 109.218z" fill="#008adf"/><path d="m431.283 336.174-48.068-208.288c-6.568-28.467-31.069-50.765-55.779-50.765-8.285 0-15 6.716-15 15s6.715 15 15 15c9.535 0 22.914 11.765 26.548 27.51l1.56 6.756h-100.612v30h85.866l-85.866 95.749v44.936l111.348-124.163 35.772 155.012c1.601 6.938 7.774 11.63 14.603 11.63 1.117 0 2.252-.125 3.387-.387 8.071-1.864 13.105-9.917 11.241-17.99z" fill="#0065a3"/><path d="m193.426 107.122h-64.266c-8.285 0-15-6.716-15-15s6.715-15 15-15h64.266c8.285 0 15 6.716 15 15s-6.715 15-15 15z" fill="#1d4659"/><path d="m207.801 292.415c-25.99 0-47.133 21.143-47.133 47.133 0 25.989 21.143 47.133 47.133 47.133 25.988 0 47.131-21.144 47.131-47.133 0-25.99-21.143-47.133-47.131-47.133z" fill="#c5e1e6"/><path d="m295.301 77.122c-8.285 0-15 6.716-15 15s6.715 15 15 15h32.135v-30z" fill="#0e232c"/></svg>