<?xml version="1.0" encoding="iso-8859-1"?>
<!-- Generator: Adobe Illustrator 19.0.0, SVG Export Plug-In . SVG Version: 6.00 Build 0)  -->
<svg version="1.1" id="Capa_1" xmlns="http://www.w3.org/2000/svg" xmlns:xlink="http://www.w3.org/1999/xlink" x="0px" y="0px"
	 viewBox="0 0 512 512" style="enable-background:new 0 0 512 512;" xml:space="preserve">
<path style="fill:#8BCE34;" d="M503.914,433.755L313.615,73.543c-1.883-3.564-6.983-3.579-8.886-0.026L111.754,433.73
	c-1.796,3.353,0.633,7.409,4.436,7.409h383.274C503.255,441.139,505.685,437.107,503.914,433.755z"/>
<path style="fill:#79B510;" d="M499.462,441.139h-26.739L291.531,98.165l13.2-24.652c1.897-3.545,6.999-3.535,8.886,0.03
	L503.915,433.75C505.683,437.105,503.256,441.139,499.462,441.139z"/>
<path style="fill:#DFEAED;" d="M405.215,246.94l-4.157,6.22l-37.42,42.668c-2.028,2.312-5.637,2.281-7.624-0.066l-64.961-76.69
	c-1.975-2.332-5.557-2.38-7.593-0.101l-34.362,38.452c-2.106,2.357-5.838,2.212-7.755-0.302L220.8,230.18l83.93-156.66
	c1.904-3.553,7.004-3.538,8.886,0.026L405.215,246.94z"/>
<path style="fill:#CDD7D9;" d="M405.217,246.937L383.9,271.899L292.3,98.505c-0.15-0.29-0.329-0.559-0.529-0.799l12.96-24.183
	c1.907-3.555,6.999-3.545,8.886,0.02L405.217,246.937z"/>
<path d="M359.855,305.031c-0.036,0-0.072,0-0.108,0c-3.646-0.031-7.09-1.645-9.447-4.428l-63.137-74.536l-32.481,36.348
	c-2.497,2.795-6.089,4.323-9.823,4.168c-3.746-0.146-7.198-1.939-9.47-4.92l-20.544-26.941c-1.779-2.333-2.032-5.491-0.646-8.077
	l83.93-156.66c2.185-4.079,6.412-6.608,11.037-6.608c0.012,0,0.024,0,0.037,0c4.639,0.014,8.868,2.57,11.035,6.672l91.598,173.394
	c1.285,2.432,1.133,5.372-0.395,7.659l-4.157,6.22c-0.182,0.272-0.381,0.531-0.596,0.777l-37.42,42.668
	C366.888,303.48,363.462,305.031,359.855,305.031z M287.213,209.805c0.055,0,0.111,0,0.166,0.001
	c3.624,0.048,7.046,1.661,9.388,4.426l63.12,74.517l35.217-40.157l1.405-2.101L309.152,81.126l-79.476,148.345l15.82,20.747
	l32.381-36.235C280.255,211.321,283.65,209.805,287.213,209.805z"/>
<path style="fill:#A1DD43;" d="M288.108,433.755L153.494,178.947c-1.883-3.564-6.983-3.579-8.886-0.026L8.1,433.73
	c-1.796,3.353,0.633,7.409,4.436,7.409h271.121C287.449,441.139,289.879,437.107,288.108,433.755z"/>
<path style="fill:#94C626;" d="M283.653,441.139h-21.757L133.913,198.881l10.694-19.959c1.907-3.555,7.009-3.535,8.886,0.03
	L288.106,433.75C289.884,437.105,287.447,441.139,283.653,441.139z"/>
<path style="fill:#DFEAED;" d="M246.679,355.348l-27.293,25.154c-1.98,1.824-5.044,1.768-6.956-0.128l-71.329-70.772
	c-2.048-2.032-5.38-1.93-7.3,0.222l-26.799,30.036c-1.81,2.028-4.903,2.253-6.987,0.508l-28.924-24.227l73.512-137.222
	c1.904-3.553,7.004-3.538,8.886,0.026L246.679,355.348z"/>
<path id="SVGCleanerId_0" style="fill:#CDD7D9;" d="M246.68,355.351l-20.249,18.661l-92.518-175.131l10.694-19.959
	c0.24-0.439,0.529-0.829,0.849-1.158c0.16-0.17,0.33-0.319,0.509-0.459c0.09-0.07,0.18-0.13,0.28-0.2
	c0.19-0.12,0.379-0.23,0.579-0.33c1.328-0.649,2.896-0.679,4.243-0.09c0.14,0.06,0.27,0.12,0.399,0.2
	c0.819,0.439,1.538,1.128,2.027,2.067L246.68,355.351z"/>
<g>
	<path id="SVGCleanerId_0_1_" style="fill:#CDD7D9;" d="M246.68,355.351l-20.249,18.661l-92.518-175.131l10.694-19.959
		c0.24-0.439,0.529-0.829,0.849-1.158c0.16-0.17,0.33-0.319,0.509-0.459c0.09-0.07,0.18-0.13,0.28-0.2
		c0.19-0.12,0.379-0.23,0.579-0.33c1.328-0.649,2.896-0.679,4.243-0.09c0.14,0.06,0.27,0.12,0.399,0.2
		c0.819,0.439,1.538,1.128,2.027,2.067L246.68,355.351z"/>
</g>
<path d="M510.535,430.257L451.738,318.96c-1.932-3.656-6.461-5.055-10.119-3.123c-3.657,1.932-5.055,6.462-3.123,10.119
	l56.894,107.695H295.928c-0.236-1.162-86.906-165.627-86.906-165.627l12.882-24.045l13.485,17.684
	c2.273,2.981,5.725,4.774,9.47,4.92c3.734,0.155,7.326-1.373,9.823-4.168l32.481-36.348l63.137,74.536
	c2.357,2.783,5.801,4.397,9.447,4.428c0.036,0,0.072,0,0.108,0c3.607,0,7.033-1.551,9.414-4.266c0.025-0.028,0.05-0.057,0.074-0.086
	l34.418-40.47l13.991,26.483c1.932,3.656,6.462,5.056,10.119,3.123c3.657-1.932,5.055-6.462,3.123-10.119L320.237,70.044
	c-2.168-4.102-6.396-6.658-11.035-6.672h-0.037c-4.625,0-8.852,2.529-11.037,6.609l-78.631,146.776l-5.297,9.887
	c-0.001,0.001-0.001,0.002-0.001,0.003l-13.612,25.408l-40.471-76.607c-1.626-3.077-4.411-5.284-7.66-6.201
	c-1.084-0.306-2.219-0.469-3.38-0.472c-0.012,0-0.024,0-0.036,0c-0.155,0-0.308,0.01-0.462,0.016
	c-0.127,0.004-0.255,0.005-0.381,0.013c-0.115,0.008-0.228,0.023-0.342,0.034c-0.17,0.016-0.34,0.029-0.508,0.052
	c-0.151,0.02-0.3,0.05-0.449,0.076c-0.125,0.022-0.252,0.039-0.376,0.065c-3.602,0.736-6.738,3.03-8.519,6.354l-27.41,51.166
	l-46.102,86.057c-0.008,0.015-0.014,0.031-0.022,0.046l-62.97,117.54c-2.098,3.917-1.988,8.532,0.294,12.345
	c2.283,3.813,6.299,6.089,10.743,6.089h486.927c4.429,0,8.438-2.265,10.724-6.058C512.475,438.777,512.604,434.174,510.535,430.257z
	 M359.858,288.714l-63.091-74.482c-2.343-2.765-5.765-4.378-9.388-4.426c-0.056-0.001-0.111-0.001-0.166-0.001
	c-3.563,0-6.958,1.517-9.336,4.178l-32.381,36.235l-15.82-20.747l2.268-4.233l77.208-144.112l87.073,164.827L359.858,288.714z
	 M16.638,433.651l56.707-105.852l21.862,18.311c2.358,1.975,5.21,2.944,8.046,2.944c3.439,0,6.854-1.425,9.337-4.207l25.075-28.104
	l16.15,16.024c2.936,2.913,7.678,2.895,10.591-0.042c2.913-2.936,2.894-7.678-0.042-10.591l-17.989-17.848
	c-2.428-2.408-5.77-3.724-9.2-3.627c-3.419,0.104-6.686,1.627-8.962,4.18L103,333.1l-22.43-18.787l68.457-127.785l88.338,167.22
	l-21.326,19.655l-19.509-19.357c-2.936-2.913-7.677-2.895-10.591,0.042c-2.913,2.935-2.894,7.677,0.042,10.59l21.176,21.011
	c2.443,2.423,5.628,3.641,8.819,3.641c3.037,0,6.079-1.104,8.486-3.323l20.144-18.566l34.977,66.208H16.638V433.651z"/>
<g>
</g>
<g>
</g>
<g>
</g>
<g>
</g>
<g>
</g>
<g>
</g>
<g>
</g>
<g>
</g>
<g>
</g>
<g>
</g>
<g>
</g>
<g>
</g>
<g>
</g>
<g>
</g>
<g>
</g>
</svg>
